<svg width="28" height="28" viewBox="0 0 28 28" fill="none" xmlns="http://www.w3.org/2000/svg">
<g id="Icon">
<g id="Vector">
<path fill-rule="evenodd" clip-rule="evenodd" d="M9.625 7.875C9.625 5.45875 11.5838 3.5 14 3.5C16.4162 3.5 18.375 5.45875 18.375 7.875C18.375 10.2912 16.4162 12.25 14 12.25C11.5838 12.25 9.625 10.2912 9.625 7.875Z" fill="#A685FA"/>
<path fill-rule="evenodd" clip-rule="evenodd" d="M18.375 11.375C18.375 9.442 19.942 7.875 21.875 7.875C23.808 7.875 25.375 9.442 25.375 11.375C25.375 13.308 23.808 14.875 21.875 14.875C19.942 14.875 18.375 13.308 18.375 11.375Z" fill="#A685FA"/>
<path fill-rule="evenodd" clip-rule="evenodd" d="M2.625 11.375C2.625 9.442 4.192 7.875 6.125 7.875C8.058 7.875 9.625 9.442 9.625 11.375C9.625 13.308 8.058 14.875 6.125 14.875C4.192 14.875 2.625 13.308 2.625 11.375Z" fill="#A685FA"/>
<path fill-rule="evenodd" clip-rule="evenodd" d="M7.36151 17.6371C8.75914 15.4518 11.2097 14 14 14C16.7906 14 19.2415 15.4522 20.639 17.6379C21.6052 19.149 22.0232 20.9711 21.8271 22.7476C21.7965 23.0252 21.6351 23.2715 21.3929 23.4105C19.2143 24.6606 16.6893 25.375 14 25.375C11.3107 25.375 8.78569 24.6606 6.60712 23.4105C6.36486 23.2715 6.20351 23.0252 6.17287 22.7476C5.97676 20.9707 6.39498 19.1483 7.36151 17.6371Z" fill="#A685FA"/>
<path d="M5.92933 16.6293C5.91528 16.6509 5.90132 16.6725 5.88744 16.6942C4.76107 18.4554 4.24559 20.5528 4.40383 22.6205C3.69445 22.5128 3.00615 22.3394 2.3455 22.1068L2.21138 22.0595C1.96672 21.9734 1.79577 21.7512 1.77519 21.4926L1.76391 21.3509C1.75469 21.235 1.75 21.1179 1.75 21C1.75 18.6493 3.60389 16.7316 5.92933 16.6293Z" fill="#A685FA"/>
<path d="M23.5966 22.6204C23.7548 20.5532 23.2396 18.4562 22.1136 16.6952C22.0995 16.6732 22.0854 16.6512 22.0711 16.6293C24.3963 16.7319 26.25 18.6495 26.25 21C26.25 21.1179 26.2453 21.235 26.2361 21.3509L26.2248 21.4926C26.2042 21.7512 26.0333 21.9734 25.7886 22.0595L25.6545 22.1068C24.994 22.3394 24.3058 22.5127 23.5966 22.6204Z" fill="#A685FA"/>
</g>
</g>
</svg>
